<?xml version="1.0" standalone="no"?>
<!DOCTYPE svg PUBLIC "-//W3C//DTD SVG 20010904//EN"
 "http://www.w3.org/TR/2001/REC-SVG-20010904/DTD/svg10.dtd">
<svg version="1.0" xmlns="http://www.w3.org/2000/svg"
 width="2000.000000pt" height="2000.000000pt" viewBox="0 0 2000.000000 2000.000000"
 preserveAspectRatio="xMidYMid meet">
<metadata>
Created by potrace 1.14, written by Peter Selinger 2001-2017
</metadata>
<g transform="translate(0.000000,2000.000000) scale(0.100000,-0.100000)"
fill="#000000" stroke="none">
<path d="M0 10000 l0 -10000 10000 0 10000 0 0 10000 0 10000 -10000 0 -10000
0 0 -10000z m13972 4196 l3 -3013 1955 1129 c2067 1194 1998 1154 1989 1145
-3 -4 -2329 -1634 -5170 -3623 l-5164 -3616 -5 -1003 -5 -1003 -798 460 -797
461 0 717 0 717 918 529 c504 291 1942 1121 3194 1844 l2278 1315 2 3024 3
3023 785 454 c432 249 791 453 797 454 10 0 13 -613 15 -3014z m-3202 -1414
l0 -2589 -647 -375 c-357 -207 -714 -415 -795 -462 l-148 -85 0 2592 0 2592
787 458 c434 251 791 457 795 457 5 0 8 -1165 8 -2588z m-3202 -1844 l-3
-2591 -790 -459 -790 -458 -3 2587 c-1 1658 1 2590 8 2597 11 11 1562 914
1573 915 4 1 6 -1165 5 -2591z m6402 -3458 l0 -2340 -37 -24 c-50 -32 -1523
-887 -1540 -893 -11 -4 -13 401 -13 2243 l1 2249 782 552 c430 303 788 552
795 552 9 1 12 -473 12 -2339z m-3200 -2049 l0 -2148 -399 -232 -398 -232
-394 230 -394 229 0 1598 0 1597 784 554 c432 304 788 553 793 553 4 0 8 -967
8 -2149z"/>
</g>
</svg>
