<svg id="e2aOfC01okQ1" xmlns="http://www.w3.org/2000/svg" xmlns:xlink="http://www.w3.org/1999/xlink" viewBox="0 0 24 24" shape-rendering="geometricPrecision" text-rendering="geometricPrecision"><style><![CDATA[#e2aOfC01okQ3 {animation: e2aOfC01okQ3_c_o 2000ms linear infinite normal forwards}@keyframes e2aOfC01okQ3_c_o { 0% {opacity: 0} 25% {opacity: 0} 50% {opacity: 1} 100% {opacity: 1}} #e2aOfC01okQ4_to {animation: e2aOfC01okQ4_to__to 2000ms linear infinite normal forwards}@keyframes e2aOfC01okQ4_to__to { 0% {transform: translate(12px,17.41px)} 25% {transform: translate(12px,10.357288px)} 100% {transform: translate(12px,10.357288px)}} #e2aOfC01okQ4 {animation: e2aOfC01okQ4_c_o 2000ms linear infinite normal forwards}@keyframes e2aOfC01okQ4_c_o { 0% {opacity: 1} 25% {opacity: 0} 100% {opacity: 0}}]]></style><path d="M14.63,2.88h-5.24999C8.20916,2.88,7.26,3.82916,7.26,5v14c0,1.1708.94916,2.12,2.12,2.12h5.25c1.1708,0,2.12-.9492,2.12-2.12v-14c0-1.17084-.9492-2.12-2.12-2.12ZM9.38001,2C7.72315,2,6.38,3.34315,6.38,5v14c0,1.6569,1.34315,3,3,3h5.25c1.6569,0,3-1.3431,3-3v-14c0-1.65685-1.3431-3-3-3h-5.24999Z" clip-rule="evenodd" fill="#f5f5f5" fill-rule="evenodd"/><rect id="e2aOfC01okQ3" width="2" height="2" rx="1" ry="1" transform="translate(11 16.41)" opacity="0" fill="#f5f5f5"/><g id="e2aOfC01okQ4_to" transform="translate(12,17.41)"><rect id="e2aOfC01okQ4" width="2" height="2" rx="1" ry="1" transform="translate(-1,-1)" fill="#f5f5f5"/></g></svg>