<svg cache-id="2a3a5066a8ae4866883aa47309b2ab8b" id="ecHtokrVAny1" xmlns="http://www.w3.org/2000/svg" xmlns:xlink="http://www.w3.org/1999/xlink" viewBox="0 0 48 48" shape-rendering="geometricPrecision" text-rendering="geometricPrecision"><style><![CDATA[#ecHtokrVAny3 {animation: ecHtokrVAny3_c_o 2000ms linear infinite normal forwards}@keyframes ecHtokrVAny3_c_o { 0% {opacity: 0} 25% {opacity: 0} 50% {opacity: 1} 100% {opacity: 1}} #ecHtokrVAny4_to {animation: ecHtokrVAny4_to__to 2000ms linear infinite normal forwards}@keyframes ecHtokrVAny4_to__to { 0% {transform: translate(24.00045px,14.123499px)} 25% {transform: translate(24.00045px,24.605498px)} 100% {transform: translate(24.00045px,24.605498px)}} #ecHtokrVAny4 {animation: ecHtokrVAny4_c_o 2000ms linear infinite normal forwards}@keyframes ecHtokrVAny4_c_o { 0% {opacity: 1} 25% {opacity: 0} 100% {opacity: 0}}]]></style><path d="M23.9993,5.7284c-5.2555,0-9.516,4.26048-9.516,9.516v17.5112c0,5.2555,4.2605,9.516,9.516,9.516h.0013c5.2555,0,9.516-4.2605,9.516-9.516v-17.5112c0-5.25552-4.2605-9.516-9.516-9.516h-.0013Zm-11.2444,9.516C12.7549,9.03431,17.7892,4,23.9993,4h.0013C30.2107,4,35.245,9.03431,35.245,15.2444v17.5112C35.245,38.9657,30.2107,44,24.0006,44h-.0013c-6.2101,0-11.2444-5.0343-11.2444-11.2444v-17.5112Z" clip-rule="evenodd" fill="#f5f5f5" fill-rule="evenodd"/><path id="ecHtokrVAny3" d="M22.7659,12.3729v3.5012c0,1.5889,2.4691,1.5914,2.4691,0v-3.5012c0-1.5889-2.4691-1.5914-2.4691,0Z" opacity="0" fill="#f5f5f5"/><g id="ecHtokrVAny4_to" transform="translate(24.00045,14.123499)"><path id="ecHtokrVAny4" d="M22.7659,12.3729v3.5012c0,1.5889,2.4691,1.5914,2.4691,0v-3.5012c0-1.5889-2.4691-1.5914-2.4691,0Z" transform="translate(-24.00045,-14.123499)" fill="#f5f5f5"/></g></svg>