<?xml version="1.0" encoding="utf-8"?><svg xmlns="http://www.w3.org/2000/svg" xmlns:xlink="http://www.w3.org/1999/xlink"><symbol viewBox="0 0 32 32" id="icon-arrow-down" xmlns="http://www.w3.org/2000/svg"><path d="M14.667 21.56L9.88 16.787 8 18.667l8 8 8-8-1.88-1.88-4.787 4.773V5.333h-2.666V21.56z"/></symbol><symbol viewBox="0 0 24 24" id="icon-arrow-left" xmlns="http://www.w3.org/2000/svg"><path d="M7.83 11l3.58-3.59L10 6l-6 6 6 6 1.41-1.41L7.83 13H20v-2H7.83z"/></symbol><symbol viewBox="0 0 24 24" id="icon-arrow-right" xmlns="http://www.w3.org/2000/svg"><path d="M16.17 11l-3.58-3.59L14 6l6 6-6 6-1.41-1.41L16.17 13H4v-2h12.17z"/></symbol><symbol viewBox="0 0 24 24" id="icon-arrow-up-right" xmlns="http://www.w3.org/2000/svg"><path d="M15.656 9.758l.007 5.07h1.994V6.343H9.172v1.994l5.07.007-8.606 8.606 1.414 1.414 8.606-8.606z"/></symbol><symbol viewBox="0 0 40 40" id="icon-arrow-up-right-thin" xmlns="http://www.w3.org/2000/svg"><g clip-path="url(#eclip0_487_2736)"><path fill-rule="evenodd" clip-rule="evenodd" d="M33.296 9.995l.025 18.266h4.637V2.04h-26.22v4.637l18.266.026L.396 36.312l3.291 3.292L33.296 9.995z"/></g><defs><clipPath id="eclip0_487_2736"><path fill="#fff" d="M0 0h40v40H0z"/></clipPath></defs></symbol><symbol viewBox="0 0 24 24" id="icon-collection" xmlns="http://www.w3.org/2000/svg"><path d="M20 20h-6.857v-6.857H20V20zm-9.143 0H4v-6.857h6.857V20zM20 10.857h-6.857V4H20v6.857zm-9.143 0H4V4h6.857v6.857z"/></symbol><symbol viewBox="0 0 40 40" id="icon-play" xmlns="http://www.w3.org/2000/svg"><path d="M13.333 31.667L31.666 20 13.333 8.333v23.334z"/></symbol><symbol viewBox="0 0 48 48" id="icon-scroll" xmlns="http://www.w3.org/2000/svg"><path fill-rule="evenodd" clip-rule="evenodd" d="M24 5.728a9.516 9.516 0 00-9.517 9.516v17.512A9.516 9.516 0 0024 42.272h.002a9.516 9.516 0 009.516-9.516V15.244A9.516 9.516 0 0024 5.728h-.002zm-11.245 9.516C12.755 9.034 17.789 4 23.999 4h.002c6.21 0 11.244 5.034 11.244 11.244v17.512c0 6.21-5.034 11.244-11.244 11.244h-.002c-6.21 0-11.244-5.034-11.244-11.244V15.244z"/><path d="M22.766 12.373v3.501c0 1.589 2.469 1.591 2.469 0v-3.501c0-1.589-2.47-1.591-2.47 0z"/></symbol><symbol fill="none" viewBox="0 0 20 20" id="logo-handpicked-grip" xmlns="http://www.w3.org/2000/svg"><path fill-rule="evenodd" clip-rule="evenodd" d="M10.219 0l-3.05 1.356 3.093 6.456c-.112-.006-.225-.019-.343-.019-2.819 0-5.325 1.825-6.094 4.438l3.231.881a2.969 2.969 0 012.863-2.081 2.925 2.925 0 012.968 2.862 2.925 2.925 0 01-2.968 2.869 2.937 2.937 0 01-2.894-2.213l-3.275.732a6.262 6.262 0 006.169 4.718c3.487 0 6.33-2.737 6.33-6.106 0-1.081-.35-2.087-.8-2.987L10.22 0z" fill="#F5F5F5"/></symbol><symbol viewBox="0 0 68 65" id="logo-tde" xmlns="http://www.w3.org/2000/svg"><path d="M28.448 62.026l3.556 2.051 3.555-2.053v-19.13l-7.11 4.98v14.152zM35.56 8.21l-7.112 4.108V35.38l7.111-4.108V8.21zM21.335 16.423l-7.11 4.105v23.063l7.11-4.105V16.423zM42.668 37.914v20.005l7.111-4.105v-20.88M14.224 47.435v6.379l7.111 4.105v-14.59l-7.11 4.106zM49.78 0l-7.112 4.105v29.529l7.111-4.98V0z"/><path d="M28.448 62.026l3.556 2.051 3.555-2.053v-19.13l-7.11 4.98v14.152zM35.56 8.21l-7.112 4.108V35.38l7.111-4.108V8.21zM21.335 16.423l-7.11 4.105v23.063l7.11-4.105V16.423zM42.668 37.914v20.005l7.111-4.105v-20.88M14.224 47.435v6.379l7.111 4.105v-14.59l-7.11 4.106zM49.78 0l-7.112 4.105v29.529l7.111-4.98V0z"/><path d="M14.36 53.893l53.197-37.25-53.333 30.792v6.379l.137.079z"/></symbol><symbol viewBox="0 0 180 64" id="logo-tde-full" xmlns="http://www.w3.org/2000/svg"><g clip-path="url(#kclip0_157_2787)"><path d="M14.204 61.949L17.755 64l3.553-2.051V42.84l-7.104 4.974v14.134zM21.308 8.2l-7.104 4.103v23.033l7.104-4.1V8.2zM7.102 16.403L0 20.503v23.035l7.102-4.1V16.403zM28.41 57.849l7.102-4.1V32.895l-7.102 4.973v19.98z"/><path d="M7.102 48.948l46.165-32.326-17.755 10.251V0L28.41 4.1v26.875L2.585 45.885 0 47.377v6.373l.09.05 7.012 4.05v-8.901zM63.259 43.222c.371.185.68.477.885.838.214.39.322.83.312 1.275.012.442-.096.879-.312 1.265a2.06 2.06 0 01-.885.82 2.974 2.974 0 01-1.337.286h-1.553v-4.775h1.553c.462-.01.92.09 1.337.29zm-.053 3.392a1.745 1.745 0 00.447-1.28 1.804 1.804 0 00-.447-1.297 1.691 1.691 0 00-1.284-.468h-.776v3.493h.776c.559 0 .986-.152 1.284-.454M66.814 42.93h-.784v4.778h.784v-4.777zM72.091 44.304a1.273 1.273 0 00-.516-.539 1.551 1.551 0 00-.762-.182 1.677 1.677 0 00-.846.213c-.248.142-.45.352-.582.605-.145.28-.217.592-.21.907-.006.316.066.628.21.91.131.255.333.466.582.609.258.145.55.218.846.214.379.016.75-.112 1.038-.36.274-.254.447-.598.487-.97h-1.793v-.625h2.631v.612a2.36 2.36 0 01-2.363 2.047 2.458 2.458 0 01-1.23-.313 2.33 2.33 0 01-.891-.861 2.59 2.59 0 010-2.523c.21-.365.517-.666.887-.869a2.604 2.604 0 012.582.062c.398.249.701.622.864 1.062l-.934.001zM75.52 42.93h-.783v4.778h.784v-4.777zM80.428 42.93v.639h-1.271v4.137h-.784v-4.137h-1.279v-.638h3.334zM84.887 46.73h-2l-.342.97h-.819l1.713-4.777h.907l1.711 4.783h-.825l-.345-.976zm-.22-.638l-.775-2.22-.777 2.22h1.553zM88.372 47.073h1.615v.633h-2.399v-4.775h.784v4.142zM94.073 44.048c.21-.365.518-.666.887-.869a2.604 2.604 0 012.583.062c.397.249.7.622.863 1.062h-.943a1.26 1.26 0 00-.514-.565 1.54 1.54 0 00-.763-.184 1.658 1.658 0 00-.846.213c-.249.143-.451.355-.582.611a2.157 2.157 0 000 1.855c.131.257.333.47.582.615.258.147.55.222.846.218.267.003.53-.064.763-.194.225-.13.405-.327.514-.563h.943c-.163.438-.467.81-.864 1.058-.408.25-.879.378-1.358.37a2.453 2.453 0 01-1.23-.312 2.329 2.329 0 01-.881-.854 2.575 2.575 0 010-2.523zM102.592 47.706l-1.106-1.911h-.583v1.911h-.776v-4.775h1.65c.321-.01.64.057.931.194.236.111.435.29.57.514.129.218.196.468.195.722.002.305-.093.603-.272.85-.205.27-.502.454-.835.518l1.182 1.979-.956-.002zm-1.689-2.536h.866a.915.915 0 00.663-.22.788.788 0 00.218-.591.781.781 0 00-.219-.582.94.94 0 00-.668-.21h-.86v1.603zM106.026 43.563v1.401h1.65v.639h-1.65v1.465h1.857v.638h-2.639v-4.783h2.639v.64h-1.857zM112.515 46.73h-2l-.344.97h-.819l1.712-4.783h.9l1.712 4.783h-.825l-.336-.97zm-.221-.638l-.776-2.22-.776 2.22h1.552zM118.302 42.93v.639h-1.271v4.137h-.784v-4.137h-1.279v-.638h3.334zM120.667 42.93h-.784v4.778h.784v-4.777zM126.603 42.93l-1.793 4.776h-.908l-1.801-4.775h.838l1.417 3.972 1.422-3.972h.825zM128.829 43.563v1.401h1.649v.639h-1.649v1.465h1.857v.638h-2.639v-4.783h2.639v.64h-1.857zM133.146 47.586a1.422 1.422 0 01-.605-.478 1.203 1.203 0 01-.22-.721h.839a.746.746 0 00.244.508c.17.14.388.21.608.194a.94.94 0 00.632-.194.638.638 0 00.227-.505.55.55 0 00-.142-.388.956.956 0 00-.351-.235c-.19-.07-.385-.13-.582-.178a5.276 5.276 0 01-.759-.25 1.271 1.271 0 01-.498-.388 1.137 1.137 0 01-.206-.715 1.266 1.266 0 01.206-.721c.143-.212.346-.376.582-.474.271-.115.563-.171.858-.165.407-.017.808.106 1.137.348a1.29 1.29 0 01.493.95h-.866a.626.626 0 00-.248-.446.914.914 0 00-.598-.194.853.853 0 00-.551.173.596.596 0 00-.212.495.512.512 0 00.134.36.948.948 0 00.34.224c.185.07.373.129.565.178.264.07.523.157.776.262.201.087.377.226.508.402.148.211.222.466.21.724 0 .243-.067.481-.194.689a1.4 1.4 0 01-.571.518 1.887 1.887 0 01-.883.194 2.13 2.13 0 01-.865-.17M140.741 42.93h-.784v4.778h.784v-4.777zM146.485 47.706h-.784l-2.358-3.567v3.567h-.782v-4.783h.782l2.358 3.56v-3.56h.784v4.783zM151.59 47.586c-.241-.1-.45-.266-.603-.478a1.203 1.203 0 01-.22-.721h.839a.755.755 0 00.242.508c.171.14.389.21.61.194a.94.94 0 00.632-.194.639.639 0 00.225-.505.558.558 0 00-.139-.388.977.977 0 00-.352-.235c-.19-.07-.385-.13-.582-.178a5.202 5.202 0 01-.759-.25 1.256 1.256 0 01-.498-.388 1.137 1.137 0 01-.206-.715 1.267 1.267 0 01.206-.721c.144-.211.346-.376.582-.474.272-.115.565-.171.86-.165.407-.017.808.106 1.137.348a1.287 1.287 0 01.491.95h-.866a.619.619 0 00-.246-.446.917.917 0 00-.6-.194.85.85 0 00-.549.173.608.608 0 00-.214.495.514.514 0 00.136.36.936.936 0 00.34.224c.184.07.372.129.563.178.264.07.523.157.776.262.201.088.376.226.508.402.148.211.222.466.21.724 0 .243-.067.481-.194.689a1.4 1.4 0 01-.571.518 1.892 1.892 0 01-.883.194 2.136 2.136 0 01-.867-.17M158.993 45.04c-.127.226-.318.41-.549.526-.303.143-.636.21-.971.194h-.865v1.94h-.776V42.93h1.649c.321-.009.64.058.932.194.236.11.435.288.57.512.129.218.196.468.194.722.001.24-.058.476-.171.687l-.013-.004zm-.838-.11a.748.748 0 00.219-.583c0-.517-.296-.776-.887-.776h-.865v1.552h.865a.957.957 0 00.668-.194zM161.655 47.442a2.35 2.35 0 01-.887-.873 2.601 2.601 0 010-2.523c.212-.364.519-.664.887-.869a2.58 2.58 0 012.461 0c.368.203.674.504.883.87a2.612 2.612 0 010 2.522 2.307 2.307 0 01-.883.873 2.582 2.582 0 01-2.461 0zm2.073-.582a1.51 1.51 0 00.582-.619c.144-.289.216-.608.209-.931a1.975 1.975 0 00-.209-.928 1.473 1.473 0 00-.582-.611 1.781 1.781 0 00-1.691 0 1.473 1.473 0 00-.582.611 1.95 1.95 0 00-.209.928c-.008.323.064.642.209.931.131.258.333.473.582.619a1.768 1.768 0 001.691 0zM169.363 47.706l-1.099-1.911h-.599v1.911h-.776v-4.775h1.647c.322-.01.642.057.933.194a1.336 1.336 0 01.763 1.236c.002.305-.093.602-.272.85-.205.27-.502.453-.834.518l1.182 1.979-.945-.002zm-1.698-2.536h.865a.91.91 0 00.664-.22.798.798 0 00.225-.591.767.767 0 00-.221-.582.934.934 0 00-.668-.21h-.865v1.603zM175.101 42.93v.639h-1.271v4.137h-.782v-4.137h-1.279v-.638h3.332zM177.39 47.586a1.435 1.435 0 01-.605-.478 1.216 1.216 0 01-.219-.721h.838c.013.194.1.376.244.508.171.14.388.21.608.194a.938.938 0 00.632-.194.638.638 0 00.227-.505.544.544 0 00-.141-.388.968.968 0 00-.35-.235c-.19-.07-.384-.13-.582-.178a5.2 5.2 0 01-.76-.25 1.268 1.268 0 01-.499-.388 1.144 1.144 0 01-.206-.715 1.274 1.274 0 01.206-.721 1.31 1.31 0 01.582-.474c.271-.115.563-.171.858-.165.408-.017.81.106 1.139.348a1.276 1.276 0 01.491.95h-.866a.626.626 0 00-.248-.446.915.915 0 00-.598-.194.847.847 0 00-.549.173.593.593 0 00-.213.495.493.493 0 00.134.36.934.934 0 00.339.224c.185.07.374.129.565.178.264.07.524.157.776.262.202.087.377.226.508.402.149.211.222.466.21.724.001.243-.066.482-.194.688a1.4 1.4 0 01-.571.519 1.88 1.88 0 01-.882.194 2.135 2.135 0 01-.866-.17M76.749 15.324v4.482h-5.404v15.778H65.71V19.806h-5.344v-4.482H76.75zM92.453 16.602a8.969 8.969 0 013.687 3.579c.863 1.533 1.294 3.285 1.294 5.258a10.39 10.39 0 01-1.308 5.24 9.259 9.259 0 01-3.708 3.607c-1.599.873-3.452 1.309-5.56 1.308h-8.012V15.33h8.018c2.127 0 3.99.426 5.589 1.278v-.006zm-2.135 12.666c.937-.906 1.407-2.18 1.41-3.823.002-1.643-.468-2.931-1.41-3.865-.939-.906-2.232-1.358-3.88-1.358h-1.96v10.404h1.956c1.648 0 2.941-.453 3.88-1.358M105.601 19.835v3.305h6.466v4.282h-6.466v3.65h7.328v4.512h-12.96v-20.26h12.96v4.511h-7.328z"/></g><defs><clipPath id="kclip0_157_2787"><path fill="#fff" d="M0 0h179.905v64H0z"/></clipPath></defs></symbol><symbol viewBox="0 0 20 20" id="social-instagram" xmlns="http://www.w3.org/2000/svg"><path d="M9.995 18.333c-2.273 0-2.54-.012-3.428-.05a6.082 6.082 0 01-2.019-.417 4.268 4.268 0 01-2.43-2.43 6.091 6.091 0 01-.388-2.022c-.051-.885-.051-1.175-.051-3.43 0-2.28.012-2.547.051-3.43a6.09 6.09 0 01.388-2.017A4.26 4.26 0 014.55 2.105a6.037 6.037 0 012.018-.389c.882-.05 1.173-.05 3.426-.05 2.292 0 2.556.013 3.429.05a6.075 6.075 0 012.024.389c1.116.433 1.999 1.315 2.433 2.432.246.655.378 1.348.389 2.048.051.886.051 1.175.051 3.43 0 2.254-.013 2.55-.051 3.425a6.1 6.1 0 01-.389 2.023 4.273 4.273 0 01-2.434 2.432 6.11 6.11 0 01-2.02.387c-.882.051-1.171.051-3.432.051zM9.964 3.13c-2.26 0-2.495.011-3.378.051a4.61 4.61 0 00-1.542.288c-.73.279-1.306.853-1.588 1.582a4.634 4.634 0 00-.288 1.558c-.049.896-.049 1.13-.049 3.375 0 2.218.009 2.487.05 3.377.008.527.105 1.048.287 1.543.282.728.86 1.302 1.588 1.581a4.547 4.547 0 001.542.287c.895.052 1.13.052 3.378.052 2.267 0 2.502-.01 3.377-.052a4.588 4.588 0 001.543-.287 2.773 2.773 0 001.58-1.58c.184-.499.281-1.026.287-1.559h.01c.04-.883.04-1.12.04-3.377 0-2.257-.01-2.495-.05-3.377a4.67 4.67 0 00-.287-1.541 2.773 2.773 0 00-1.58-1.582 4.568 4.568 0 00-1.543-.288c-.894-.05-1.128-.05-3.377-.05zm.031 11.123a4.272 4.272 0 11-.005-8.545 4.272 4.272 0 01.005 8.544zm0-7.048a2.772 2.772 0 102.773 2.773 2.779 2.779 0 00-2.773-2.772zm4.436-.658a.996.996 0 11.007-1.993.996.996 0 01-.007 1.993z"/></symbol><symbol viewBox="0 0 20 20" id="social-linkedin" xmlns="http://www.w3.org/2000/svg"><path d="M10.926 18.333H7.222V7.223h3.704v1.85a4.276 4.276 0 013.264-1.632 4.167 4.167 0 014.143 4.18v6.712H14.63v-6.25a2.097 2.097 0 00-2.08-1.8 1.68 1.68 0 00-1.624 1.8v6.25zm-5.556 0H1.667V7.223H5.37v11.11zM3.52 5.37a1.852 1.852 0 110-3.703 1.852 1.852 0 010 3.703z"/></symbol><symbol viewBox="0 0 20 20" id="social-twitter" xmlns="http://www.w3.org/2000/svg"><path d="M16.37 5.366a3.426 3.426 0 001.504-1.892 6.846 6.846 0 01-2.171.83 3.426 3.426 0 00-5.83 3.119A9.708 9.708 0 012.827 3.85a3.426 3.426 0 001.058 4.566 3.407 3.407 0 01-1.548-.429v.043a3.421 3.421 0 002.743 3.353 3.426 3.426 0 01-1.544.059 3.426 3.426 0 003.194 2.374 6.86 6.86 0 01-4.247 1.464c-.272 0-.545-.016-.816-.047a9.678 9.678 0 005.242 1.536 9.662 9.662 0 009.728-9.73c0-.148-.003-.295-.01-.442a6.948 6.948 0 001.706-1.77 6.835 6.835 0 01-1.963.539z"/></symbol></svg>